<?xml version="1.0" encoding="UTF-8"?>
<svg id="Layer_1" data-name="Layer 1" xmlns="http://www.w3.org/2000/svg" version="1.1" xmlns:xlink="http://www.w3.org/1999/xlink" viewBox="0 0 496 94">
  <defs>
    <style>
      .cls-1 {
        fill: #000;
      }

      .cls-1, .cls-2 {
        stroke-width: 0px;
      }

      .cls-2 {
        fill: #fff;
      }
    </style>
  </defs>
  <g>
    <path class="cls-1" d="M145.2,14c2.9,2.2,5.1,5.5,9.2,6.4-.3.2-.4.4-.6.4h-5.5c-.3,0-.6-.2-.8-.4-2-1.8-4.2-3.5-6.2-5.3-.6-.5-1.2-.8-2-.7h-1.3v4.7c0,.4.5.8.9.9.5.2,1.2.2,1.8.2s.3.2.4.3c-.2,0-.4.3-.4.3h-9.5c-.2,0-.4-.2-.6-.3.2,0,.4-.3.6-.3,2.8-.2,2.4-.6,2.4-2.5v-8.7c0-1.2-.3-1.4-1.3-1.5-.4,0-.9,0-1.2,0-.2,0-.3-.2-.4-.4,0,0,.3-.2.4-.3h0c4.8,0,9.6,0,14.4.3,1.1,0,2.1.4,3.1,1.1,1.7,1,1.7,3.1.2,4.3-1,.7-2,1.2-3.3,1.7h0ZM137.8,13.2h2.6c.5,0,1.2,0,1.7-.2.6-.2,1.3-.4,1.9-.7,1.4-.9,1.4-2.7,0-3.6-1.9-1.3-4.1-1.1-6.2-.9v5.5h0Z"/>
    <path class="cls-1" d="M279.9,12.6c-2.4,2.9-4.6,5.7-7,8.5-2.2-2.8-4.5-5.5-6.8-8.4-.3,1.7-.6,3.3-.9,4.8-.4,2.5-.4,2.5,2.1,2.7,0,0,.2,0,.4,0-.4.4-6,.4-6.9,0,.6,0,1.1-.2,1.6-.3.7,0,1.1-.4,1.2-1.1.4-2,.8-4,1.2-6.1v-.4c.2-1.2,0-1.7-1.3-1.8-.4,0-.8,0-1.2-.2v-.3h4.9c.7,0,1.1.2,1.5.7,1.6,2.1,3.3,4.3,5,6.3,0,.2.3.3.4.5,1.3-1.6,2.6-3.2,3.8-4.8.4-.4.9-.9,1.2-1.4.6-1.2,1.6-1.4,2.8-1.3,1.2,0,2.6,0,3.8,0v.4c-.4,0-.8.2-1.2.2-1.3.2-1.5.4-1.3,1.7.3,2,.5,4.1.7,6.1.2,1.3.5,1.7,1.9,1.7h.9v.3h-8.3v-.2c.3,0,.5,0,.9,0,1.2,0,1.5-.3,1.3-1.5-.2-2-.4-4-.7-6.2h0Z"/>
    <path class="cls-1" d="M222.4,14.8v-3.1c0-.6-.4-.9-1-.9s-1,0-1.5,0v-.4h8.2v.3c-.3,0-.5.2-.8.2-1.3,0-1.5.3-1.5,1.7v6.1c0,1.5.2,1.7,1.7,1.8h.8c-.2.2-.2.4-.3.4h-8v-.4c.5,0,1.1,0,1.6-.3.4,0,.8-.5.8-.8,0-1.2,0-2.4,0-3.6h-9.4v3.6c0,.3.4.7.8.8.4.2,1.1.2,1.7.3-.2.2-.3.4-.4.4h-7.9v-.3c.4,0,1-.2,1.4-.3.6,0,.9-.4.9-1.1v-7.3c0-.6-.4-1-1-1.1-.4,0-.9,0-1.3-.2v-.3h8.2v.2c-.3,0-.4.2-.7.2-1.7,0-1.7.2-1.7,1.9v2.2h9.4Z"/>
    <path class="cls-1" d="M304.5,21c-3.1,0-5.7-.4-8-2-1.3-.9-2.3-2-2.1-3.7,0-1.3.8-2.2,1.9-3,1.5-1.2,3.4-1.8,5.3-2,2.8-.4,5.7-.4,8.4.6,1.2.4,2.3,1.1,3.2,1.9,1.7,1.4,1.6,3.7,0,5.3-1.6,1.6-3.6,2.3-5.7,2.7-1.1.2-2.2.3-2.8.3h0ZM304.1,11v-.3c-1.2.4-2.6.5-3.7,1.1-2.5,1.2-2.8,4.4-.9,6.3,1.8,1.8,5.5,2.3,8.3,1.2,1.4-.6,2.5-1.6,2.6-3.2.2-1.6-.4-3-1.8-4-1.3-.9-2.8-1.2-4.4-1.2v.2Z"/>
    <path class="cls-1" d="M340,21.2c-.6-.2-1.1-.3-1.4-.5-4-2.5-8-5-11.9-7.5-.3-.2-.5-.3-.8-.4v6.2c0,.8.5,1.2,1.2,1.2.6,0,1.3.2,2,.3v.2h-7.1v-.2c.4,0,.7,0,1.1-.2,1-.2,1.4-.5,1.5-1.5v-6.6c0-.8-.6-1.1-1.2-1.2-.4,0-.9-.2-1.3-.4.2,0,.4,0,.5,0h.4c1.6,0,3.2-.3,4.6,0,1.4.4,2.7,1.5,4,2.4,2.4,1.5,4.7,2.9,7.2,4.5v-5.4c0-.4-.6-.8-1.1-1-.5-.2-1.2-.2-1.7-.4h7v.2c-.5,0-1,.2-1.5.3-.8,0-1.2.5-1.3,1.3v9.1l-.2-.4Z"/>
    <path class="cls-1" d="M251.3,10.4c0,.6.2,1.2.2,1.8s-.3.4-.5.7c-.4-1.7-1.7-1.9-3-2h-4.2v3.8h4.3c.4,0,.6-.4.9-.6s.4-.4.9-.7v3.6c-.4.2-.6,0-.9-.4-.2-.4-.6-.6-1-.7-1.3-.2-2.8-.2-4.2-.3v3.6c0,.6.5.9,1.1.9,2,0,4,0,6-.2.4,0,1-.5,1.3-1,.3-.4.5-.6,1.1-.4-.2.6-.4,1.3-.6,2,0,.2-.4.4-.5.4h-13.7s-.2,0-.3-.3c.3,0,.4-.2.7-.2,1.6,0,1.7-.2,1.7-1.8v-5.9c0-1.7,0-1.8-1.8-1.9h-.6c.4-.4,10-.5,13.4-.3l-.2-.3Z"/>
    <path class="cls-1" d="M197,10.5c.2.9.3,1.6.4,2.2,0,.2,0,.4-.2.4,0,0-.4,0-.4,0-2.6-2.5-7.1-3-10.2-1.3-1.4.8-2.4,1.9-2.3,3.6,0,1.7,1,2.9,2.5,3.6,2.8,1.3,5.6,1.2,8.5.2.6-.3,1.1-.9,1.6-1.3.2-.2.4-.3.7-.4,0,0,0,0,.2.2-.2.7-.4,1.3-.5,2,0,.2-.4.4-.6.4-3.6.6-7.1,1.1-10.7,0-1.3-.4-2.7-1.1-3.7-1.9-2.1-1.7-2-4.5.2-6.2,2-1.5,4.3-2.1,6.7-2.1s5.4.4,8.2.5h0Z"/>
    <path class="cls-1" d="M361.7,11.3v7.8c0,.7.3,1.2,1.1,1.2.4,0,1,0,1.4.2v.2h-8.7v-.2c.5,0,1.2-.2,1.7-.3.6,0,.9-.4.9-.9v-8.1h-5.2c-.5,0-1.1.5-1.6.9-.3,0-.4.3-.9.4.2-1.1.4-1.9.5-2.7.7.2,1.3.4,2,.4h13.8c.4,0,.9-.2,1.3-.3.3,0,.4,0,1-.2-.7.9,0,2.1-1.1,2.6v-.3c-.5-.4-1.1-.9-1.6-.9-1.5,0-3,0-4.5,0h0Z"/>
    <path class="cls-1" d="M162.3,20.4c.4,0,.9-.2,1.3-.2s.8-.4.8-.9v-7.6c0-.6-.3-.9-.9-.9s-.9,0-1.3-.2v-.3h7.9v.2c-.4,0-.8.2-1.2.2-.8,0-1.2.4-1.2,1.2v7c0,.7.3,1.2,1,1.2.4,0,.8,0,1.2.4h-7.9v-.2h.2Z"/>
  </g>
  <g>
    <path class="cls-2" d="M144.3,13.1c2.9,2.2,5.1,5.5,9.2,6.4-.3.2-.4.4-.6.4h-5.5c-.3,0-.6-.2-.8-.4-2-1.8-4.2-3.5-6.2-5.3-.6-.5-1.2-.8-2-.7h-1.3v4.7c0,.4.5.8.9.9.5.2,1.2.2,1.8.2s.3.2.4.3c-.2,0-.4.3-.4.3h-9.5c-.2,0-.4-.2-.6-.3.2,0,.4-.3.6-.3,2.8-.2,2.4-.6,2.4-2.5v-8.7c0-1.2-.3-1.4-1.3-1.5-.4,0-.9,0-1.2,0-.2,0-.3-.2-.4-.4,0,0,.3-.2.4-.3h0c4.8,0,9.6,0,14.4.3,1.1,0,2.1.4,3.1,1.1,1.7,1,1.7,3.1.2,4.3-1,.7-2,1.2-3.3,1.7h0ZM137,12.3h2.6c.5,0,1.2,0,1.7-.2.6-.2,1.3-.4,1.9-.7,1.4-.9,1.4-2.7,0-3.6-1.9-1.3-4.1-1.1-6.2-.9v5.5h0Z"/>
    <path class="cls-2" d="M279,11.7c-2.4,2.9-4.6,5.7-7,8.5-2.2-2.8-4.5-5.5-6.8-8.4-.3,1.7-.6,3.3-.9,4.8-.4,2.5-.4,2.5,2.1,2.7,0,0,.2,0,.4,0-.4.4-6,.4-6.9,0,.6,0,1.1-.2,1.6-.3.7,0,1.1-.4,1.2-1.1.4-2,.8-4,1.2-6.1v-.4c.2-1.2,0-1.7-1.3-1.8-.4,0-.8,0-1.2-.2v-.3h4.9c.7,0,1.1.2,1.5.7,1.6,2.1,3.3,4.3,5,6.3,0,.2.3.3.4.5,1.3-1.6,2.6-3.2,3.8-4.8.4-.4.9-.9,1.2-1.4.6-1.2,1.6-1.4,2.8-1.3,1.2,0,2.6,0,3.8,0v.4c-.4,0-.8.2-1.2.2-1.3.2-1.5.4-1.3,1.7.3,2,.5,4.1.7,6.1.2,1.3.5,1.7,1.9,1.7h.9v.3h-8.3v-.2c.3,0,.5,0,.9,0,1.2,0,1.5-.3,1.3-1.5-.2-2-.4-4-.7-6.2h0Z"/>
    <path class="cls-2" d="M221.5,13.9v-3.1c0-.6-.4-.9-1-.9s-1,0-1.5,0v-.4h8.2v.3c-.3,0-.5.2-.8.2-1.3,0-1.5.3-1.5,1.7v6.1c0,1.5.2,1.7,1.7,1.8h.8c-.2.2-.2.4-.3.4h-8v-.4c.5,0,1.1,0,1.6-.3.4,0,.8-.5.8-.8,0-1.2,0-2.4,0-3.6h-9.4v3.6c0,.3.4.7.8.8.4.2,1.1.2,1.7.3-.2.2-.3.4-.4.4h-7.9v-.3c.4,0,1-.2,1.4-.3.6,0,.9-.4.9-1.1v-7.3c0-.6-.4-1-1-1.1-.4,0-.9,0-1.3-.2v-.3h8.2v.2c-.3,0-.4.2-.7.2-1.7,0-1.7.2-1.7,1.9v2.2h9.4Z"/>
    <path class="cls-2" d="M303.6,20.2c-3.1,0-5.7-.4-8-2-1.3-.9-2.3-2-2.1-3.7,0-1.3.8-2.2,1.9-3,1.5-1.2,3.4-1.8,5.3-2,2.8-.4,5.7-.4,8.4.6,1.2.4,2.3,1.1,3.2,1.9,1.7,1.4,1.6,3.7,0,5.3-1.6,1.6-3.6,2.3-5.7,2.7-1.1.2-2.2.3-2.8.3h0ZM303.2,10.1v-.3c-1.2.4-2.6.5-3.7,1.1-2.5,1.2-2.8,4.4-.9,6.3,1.8,1.8,5.5,2.3,8.3,1.2,1.4-.6,2.5-1.6,2.6-3.2.2-1.6-.4-3-1.8-4-1.3-.9-2.8-1.2-4.4-1.2v.2Z"/>
    <path class="cls-2" d="M339.1,20.3c-.6-.2-1.1-.3-1.4-.5-4-2.5-8-5-11.9-7.5-.3-.2-.5-.3-.8-.4v6.2c0,.8.5,1.2,1.2,1.2.6,0,1.3.2,2,.3v.2h-7.1v-.2c.4,0,.7,0,1.1-.2,1-.2,1.4-.5,1.5-1.5v-6.6c0-.8-.6-1.1-1.2-1.2-.4,0-.9-.2-1.3-.4.2,0,.4,0,.5,0h.4c1.6,0,3.2-.3,4.6,0,1.4.4,2.7,1.5,4,2.4,2.4,1.5,4.7,2.9,7.2,4.5v-5.4c0-.4-.6-.8-1.1-1-.5-.2-1.2-.2-1.7-.4h7v.2c-.5,0-1,.2-1.5.3-.8,0-1.2.5-1.3,1.3v9.1l-.2-.4Z"/>
    <path class="cls-2" d="M250.5,9.5c0,.6.2,1.2.2,1.8s-.3.4-.5.7c-.4-1.7-1.7-1.9-3-2h-4.2v3.8h4.3c.4,0,.6-.4.9-.6s.4-.4.9-.7v3.6c-.4.2-.6,0-.9-.4-.2-.4-.6-.6-1-.7-1.3-.2-2.8-.2-4.2-.3v3.6c0,.6.5.9,1.1.9,2,0,4,0,6-.2.4,0,1-.5,1.3-1,.3-.4.5-.6,1.1-.4-.2.6-.4,1.3-.6,2,0,.2-.4.4-.5.4h-13.7s-.2,0-.3-.3c.3,0,.4-.2.7-.2,1.6,0,1.7-.2,1.7-1.8v-5.9c0-1.7,0-1.8-1.8-1.9h-.6c.4-.4,10-.5,13.4-.3l-.2-.3Z"/>
    <path class="cls-2" d="M196.2,9.7c.2.9.3,1.6.4,2.2,0,.2,0,.4-.2.4,0,0-.4,0-.4,0-2.6-2.5-7.1-3-10.2-1.3-1.4.8-2.4,1.9-2.3,3.6,0,1.7,1,2.9,2.5,3.6,2.8,1.3,5.6,1.2,8.5.2.6-.3,1.1-.9,1.6-1.3.2-.2.4-.3.7-.4,0,0,0,0,.2.2-.2.7-.4,1.3-.5,2,0,.2-.4.4-.6.4-3.6.6-7.1,1.1-10.7,0-1.3-.4-2.7-1.1-3.7-1.9-2.1-1.7-2-4.5.2-6.2,2-1.5,4.3-2.1,6.7-2.1s5.4.4,8.2.5h0Z"/>
    <path class="cls-2" d="M360.8,10.4v7.8c0,.7.3,1.2,1.1,1.2.4,0,1,0,1.4.2v.2h-8.7v-.2c.5,0,1.2-.2,1.7-.3.6,0,.9-.4.9-.9v-8.1h-5.2c-.5,0-1.1.5-1.6.9-.3,0-.4.3-.9.4.2-1.1.4-1.9.5-2.7.7.2,1.3.4,2,.4h13.8c.4,0,.9-.2,1.3-.3.3,0,.4,0,1-.2-.7.9,0,2.1-1.1,2.6v-.3c-.5-.4-1.1-.9-1.6-.9-1.5,0-3,0-4.5,0h0Z"/>
    <path class="cls-2" d="M161.4,19.5c.4,0,.9-.2,1.3-.2s.8-.4.8-.9v-7.6c0-.6-.3-.9-.9-.9s-.9,0-1.3-.2v-.3h7.9v.2c-.4,0-.8.2-1.2.2-.8,0-1.2.4-1.2,1.2v7c0,.7.3,1.2,1,1.2.4,0,.8,0,1.2.4h-7.9v-.2h.2Z"/>
  </g>
  <image width="1119" height="179" transform="translate(4.4 16.1) scale(.4)" xlink:href="../../../../../../Users/markd/Downloads/details.png"/>
</svg>